<svg xmlns="http://www.w3.org/2000/svg" viewBox="0 0 18 18" width="18" height="18">
	<style>
		tspan { white-space:pre }
		.shp0 { fill: none } 
		.shp1 { fill: #ea1e65 } 
	</style>
	<path id="Layer" class="shp0" d="M0 0L18 0L18 18L0 18L0 0Z" />
	<path id="Layer" fill-rule="evenodd" class="shp1" d="M16.5 4.5L16.5 13.5C16.5 14.3 15.8 15 15 15L3 15C2.2 15 1.5 14.3 1.5 13.5L1.5 4.5C1.5 3.7 2.2 3 3 3L15 3C15.8 3 16.5 3.7 16.5 4.5ZM3 10.5L6 10.5L6 9L3 9L3 10.5ZM10.5 12L3 12L3 13.5L10.5 13.5L10.5 12ZM15 12L12 12L12 13.5L15 13.5L15 12ZM15 9L7.5 9L7.5 10.5L15 10.5L15 9Z" />
</svg>