<svg xmlns="http://www.w3.org/2000/svg" viewBox="0 0 18 18" width="18" height="18">
	<style>
		tspan { white-space:pre }
		.shp0 { fill: none } 
		.shp1 { fill: #ea1e65 } 
	</style>
	<path id="Layer" class="shp0" d="M0 0L18 0L18 18L0 18L0 0Z" />
	<path id="Layer" fill-rule="evenodd" class="shp1" d="M17.2 3.8L17.2 14.2C17.2 15 16.5 15.7 15.7 15.7L2.2 15.7C1.4 15.7 0.7 15 0.7 14.2L0.7 3.7C0.7 2.9 1.4 2.2 2.2 2.2L15.8 2.2C16.6 2.2 17.2 2.9 17.2 3.8ZM15.7 14.3L15.7 3.7L2.2 3.7L2.2 14.3L15.7 14.3ZM4.5 10.5L2.6 9L4.5 7.5L4.5 10.5ZM9 13.9L7.5 12L10.5 12L9 13.9ZM10.5 6L7.5 6L9 4.1L10.5 6ZM15.4 9L13.5 10.5L13.5 7.5L15.4 9Z" />
</svg>