<svg xmlns="http://www.w3.org/2000/svg" viewBox="0 0 18 18" width="18" height="18">
	<style>
		tspan { white-space:pre }
		.shp0 { fill: none } 
		.shp1 { fill: #ea1e65 } 
	</style>
	<path id="Layer" class="shp0" d="M0 0L18 0L18 18L0 18L0 0Z" />
	<path id="Layer" class="shp1" d="M3.8 12L6 12L6 14.2L7.5 14.2L7.5 10.4L3.8 10.4L3.8 12ZM6 6L3.8 6L3.8 7.5L7.6 7.5L7.6 3.8L6 3.8L6 6ZM10.5 14.2L12 14.2L12 12L14.2 12L14.2 10.5L10.4 10.5L10.4 14.2L10.5 14.2ZM12 6L12 3.8L10.5 3.8L10.5 7.6L14.3 7.6L14.3 6L12 6Z" />
</svg>