<svg xmlns="http://www.w3.org/2000/svg" viewBox="0 0 18 18" width="18" height="18">
	<style>
		tspan { white-space:pre }
		.shp0 { fill: none } 
		.shp1 { fill: #ea1e65 } 
	</style>
	<path id="Layer" class="shp0" d="M0 0L18 0L18 18L0 18L0 0Z" />
	<path id="Layer" fill-rule="evenodd" class="shp1" d="M16.5 9C16.5 13.1 13.1 16.5 9 16.5C4.9 16.5 1.5 13.1 1.5 9C1.5 4.9 4.9 1.5 9 1.5C13.1 1.5 16.5 4.9 16.5 9ZM15 9C15 5.7 12.3 3 9 3C5.7 3 3 5.7 3 9C3 12.3 5.7 15 9 15C12.3 15 15 12.3 15 9ZM6.8 6L8.3 6L8.3 12L6.8 12L6.8 6ZM9.8 6L11.3 6L11.3 12L9.8 12L9.8 6Z" />
</svg>