<svg xmlns="http://www.w3.org/2000/svg" viewBox="0 0 18 18" width="18" height="18">
	<style>
		tspan { white-space:pre }
		.shp0 { fill: #ea1e65 } 
		.shp1 { fill: none } 
	</style>
	<path id="Layer" class="shp0" d="M3 8.2L6.8 8.2L6.8 3.8L3 3.8L3 8.2ZM3 13.5L6.8 13.5L6.8 9L3 9L3 13.5ZM7.5 13.5L11.3 13.5L11.3 9L7.5 9L7.5 13.5ZM12 13.5L15.8 13.5L15.8 9L12 9L12 13.5ZM7.5 8.2L11.3 8.2L11.3 3.8L7.5 3.8L7.5 8.2ZM12 3.8L12 8.3L15.8 8.3L15.8 3.8L12 3.8Z" />
	<path id="Layer" class="shp1" d="M0 0L18 0L18 18L0 18L0 0Z" />
</svg>