<svg xmlns="http://www.w3.org/2000/svg" viewBox="0 0 18 18" width="18" height="18">
	<style>
		tspan { white-space:pre }
		.shp0 { fill: none } 
		.shp1 { fill: #ea1e65 } 
	</style>
	<path id="Layer" class="shp0" d="M0 0L18 0L18 18L0 18L0 0Z" />
	<path id="Layer" class="shp1" d="M5.2 13.5L6.7 13.5L6.7 4.5L5.2 4.5L5.2 13.5ZM8.2 16.5L9.7 16.5L9.7 1.5L8.2 1.5L8.2 16.5ZM2.2 10.5L3.7 10.5L3.7 7.5L2.2 7.5L2.2 10.5ZM11.2 13.5L12.7 13.5L12.7 4.5L11.2 4.5L11.2 13.5ZM14.2 7.5L14.2 10.5L15.7 10.5L15.7 7.5L14.2 7.5Z" />
</svg>