<svg xmlns="http://www.w3.org/2000/svg" viewBox="0 0 24 24" width="24" height="24">
	<style>
		tspan { white-space:pre }
		.shp0 { fill: none } 
		.shp1 { fill: #ea1e65 } 
	</style>
	<path id="Layer" class="shp0" d="M0 0L24 0L24 24L0 24L0 0Z" />
	<path id="Layer" fill-rule="evenodd" class="shp1" d="M21 12C21 17 17 21 12 21C9.9 21 8 20.3 6.5 19.1L7.9 17.7C9.1 18.5 10.5 19 12 19C15.9 19 19 15.9 19 12C19 8.1 15.9 5 12 5C8.1 5 5 8.1 5 12L8 12L4 16L0 12L3 12C3 7 7 3 12 3C17 3 21 7 21 12ZM12 14C10.9 14 10 13.1 10 12C10 10.9 10.9 10 12 10C13.1 10 14 10.9 14 12C14 13.1 13.1 14 12 14Z" />
</svg>