<svg xmlns="http://www.w3.org/2000/svg" viewBox="0 0 18 18" width="18" height="18">
	<style>
		tspan { white-space:pre }
		.shp0 { fill: #ea1e65 } 
	</style>
	<g id="Layer">
		<path id="Layer" fill-rule="evenodd" class="shp0" d="M15 9.7C15 13 12.3 15.7 9 15.7C5.7 15.7 3 13 3 9.7L4.5 9.7C4.5 12.2 6.5 14.2 9 14.2C11.5 14.2 13.5 12.2 13.5 9.7C13.5 7.2 11.5 5.2 9 5.2L9 8.2L5.2 4.5L9 0.8L9 3.8C12.3 3.8 15 6.4 15 9.7ZM7.2 10.1L7.5 10.1C7.6 10.1 7.8 10 7.9 10C8 9.9 8 9.8 8 9.7L8 9.5L7.9 9.4C7.9 9.4 7.9 9.3 7.8 9.3L7.4 9.3C7.4 9.3 7.3 9.4 7.2 9.4C7.1 9.4 7.1 9.5 7.1 9.5L7.1 9.6L6.4 9.6C6.4 9.5 6.4 9.4 6.5 9.2C6.6 9.2 6.7 9.1 6.8 9C6.9 8.9 7 8.9 7 8.9C7 8.9 7.3 8.8 7.4 8.8C7.6 8.8 7.7 8.8 7.9 8.9C8 8.9 8.1 8.9 8.2 9C8.3 9.1 8.3 9.1 8.4 9.3C8.5 9.5 8.5 9.5 8.5 9.7L8.5 9.9C8.5 9.9 8.4 10 8.4 10.1C8.4 10.2 8.3 10.2 8.3 10.2C8.2 10.2 8.1 10.3 8.1 10.3C8.2 10.4 8.4 10.5 8.5 10.6C8.6 10.7 8.6 10.9 8.6 11C8.6 11.1 8.6 11.3 8.5 11.4C8.4 11.5 8.4 11.6 8.3 11.7C8.2 11.9 8.1 12 7.9 12C7.7 12 7.6 12.1 7.4 12.1C7.3 12.1 7.1 12.1 7 12C6.9 11.9 6.8 11.9 6.6 11.9C6.5 11.8 6.5 11.8 6.4 11.6C6.3 11.5 6.3 11.3 6.3 11.2L7 11.2L7 11.3L7.1 11.4C7.1 11.5 7.2 11.5 7.3 11.5L7.7 11.5C7.7 11.5 7.8 11.4 7.9 11.4C8 11.4 8 11.3 8 11.3L8 10.9L7.9 10.8C7.9 10.7 7.8 10.7 7.7 10.7L7.2 10.7C7.2 10.6 7.2 10.1 7.2 10.1ZM11.5 10.6C11.5 10.8 11.5 11.1 11.4 11.2L11.2 11.7C11.2 11.7 11 11.9 10.8 11.9C10.7 11.9 10.5 12 10.4 12C10.3 12 10.1 12 10 11.9C9.8 11.8 9.8 11.8 9.6 11.7C9.4 11.6 9.4 11.5 9.4 11.2C9.3 11 9.3 10.8 9.3 10.6L9.3 10.1C9.3 9.9 9.3 9.7 9.4 9.5L9.6 9C9.6 9 9.8 8.8 10 8.8C10.1 8.8 10.3 8.7 10.4 8.7C10.5 8.7 10.7 8.7 10.8 8.8C11 8.9 11 9 11.2 9.1C11.4 9.2 11.4 9.3 11.4 9.6C11.5 9.8 11.5 10 11.5 10.2C11.5 10.1 11.5 10.6 11.5 10.6ZM10.9 10L10.9 9.7C10.9 9.6 10.8 9.6 10.8 9.5C10.8 9.4 10.7 9.4 10.7 9.3C10.6 9.2 10.6 9.2 10.5 9.2C10.4 9.2 10.4 9.2 10.3 9.3L10 9.4C10 9.4 9.9 9.5 9.9 9.6L9.9 11.1L10 11.3C10 11.4 10.1 11.4 10.2 11.4C10.3 11.5 10.3 11.5 10.4 11.5C10.5 11.5 10.6 11.5 10.6 11.4L10.7 11.3C10.7 11.3 10.8 11.2 10.8 11.1L10.8 10L10.9 10Z" />
	</g>
</svg>