<svg xmlns="http://www.w3.org/2000/svg" viewBox="0 0 24 24" width="24" height="24">
	<style>
		tspan { white-space:pre }
		.shp0 { fill: none } 
		.shp1 { fill: #ea1e65 } 
	</style>
	<path id="Layer" class="shp0" d="M0 0L24 0L24 24L0 24L0 0Z" />
	<path id="Layer" class="shp1" d="M3 17L3 19L9 19L9 17L3 17ZM3 5L3 7L13 7L13 5L3 5ZM13 21L13 19L21 19L21 17L13 17L13 15L11 15L11 21L13 21ZM7 9L7 11L3 11L3 13L7 13L7 15L9 15L9 9L7 9ZM21 13L21 11L11 11L11 13L21 13ZM15 9L17 9L17 7L21 7L21 5L17 5L17 3L15 3L15 9Z" />
</svg>