<svg xmlns="http://www.w3.org/2000/svg" viewBox="0 0 18 18" width="18" height="18">
	<style>
		tspan { white-space:pre }
		.shp0 { fill: none } 
		.shp1 { fill: #ea1e65 } 
	</style>
	<path id="Layer" fill-rule="evenodd" class="shp0" d="" />
	<path id="Layer" fill-rule="evenodd" class="shp1" d="M15.8 14.5L14.8 15.5L11.7 12.4C11.1 12.8 10.5 13 9.8 13.1L9.8 15.6L8.3 15.6L8.3 13.1C5.8 12.8 3.8 10.7 3.8 8.1L4.9 8.1C4.9 10.3 6.8 11.9 8.9 11.9C9.5 11.9 10.1 11.7 10.6 11.5L9.4 10.3C9.2 10.4 9.1 10.4 8.9 10.4C7.7 10.4 6.7 9.4 6.7 8.2L6.7 7.7L2.2 3.2L3.2 2.2L15.8 14.5ZM6.8 3.9L6.8 3.8C6.8 2.6 7.8 1.6 9 1.6C10.2 1.6 11.2 2.6 11.2 3.8L11.2 8.4L6.8 3.9ZM13.6 10.6L12.7 9.7C12.9 9.3 13 8.8 13 8.2L14.2 8.2C14.2 9.1 14 10 13.6 10.6Z" />
</svg>