<svg xmlns="http://www.w3.org/2000/svg" viewBox="0 0 18 18" width="18" height="18">
	<style>
		tspan { white-space:pre }
		.shp0 { fill: #ea1e65 } 
		.shp1 { fill: none } 
	</style>
	<path id="Layer" class="shp0" d="M9 10.5C10.2 10.5 11.2 9.5 11.2 8.3L11.2 3.8C11.2 2.6 10.2 1.6 9 1.6C7.8 1.6 6.8 2.6 6.8 3.8L6.8 8.3C6.8 9.5 7.8 10.5 9 10.5ZM13 8.2C13 10.4 11.1 12 9 12C6.9 12 5 10.4 5 8.2L3.8 8.2C3.8 10.8 5.8 12.9 8.3 13.2L8.3 15.7L9.8 15.7L9.8 13.2C12.3 12.8 14.3 10.7 14.3 8.2L13 8.2Z" />
	<path id="Layer" class="shp1" d="M0 0L18 0L18 18L0 18L0 0Z" />
</svg>